{
	"asset":{
		"generator":"Khronos glTF Blender I/O v3.5.30",
		"version":"2.0"
	},
	"extensionsUsed":[
		"KHR_lights_punctual",
		"KHR_materials_clearcoat",
		"KHR_materials_transmission",
		"KHR_materials_specular",
		"KHR_materials_ior"
	],
	"extensionsRequired":[
		"KHR_lights_punctual"
	],
	"extensions":{
		"KHR_lights_punctual":{
			"lights":[
				{
					"color":[
						1,
						1,
						1
					],
					"intensity":54351.41306588226,
					"type":"point",
					"name":"Light"
				},
				{
					"color":[
						1,
						0.8357354998588562,
						0.9734399914741516
					],
					"intensity":683,
					"type":"directional",
					"name":"Sun.001"
				}
			]
		}
	},
	"scene":0,
	"scenes":[
		{
			"extras":{
				"uuid":"e1c96808-dc0a-4412-b3d6-e51ab2427836",
				"assets reported":{}
			},
			"name":"Scene",
			"nodes":[
				0,
				8,
				9
			]
		}
	],
	"nodes":[
		{
			"extensions":{
				"KHR_lights_punctual":{
					"light":0
				}
			},
			"name":"Light",
			"rotation":[
				-0.28416627645492554,
				0.7269423007965088,
				0.34203392267227173,
				0.5232754945755005
			],
			"translation":[
				4.076245307922363,
				5.903861999511719,
				-1.0054539442062378
			]
		},
		{
			"mesh":0,
			"name":"Cube",
			"scale":[
				0.0814138874411583,
				0.035379718989133835,
				0.06742630153894424
			],
			"translation":[
				0,
				0.06513595581054688,
				0
			]
		},
		{
			"mesh":1,
			"name":"Cube.003",
			"rotation":[
				0.2551824450492859,
				0.043857987970113754,
				-0.011587797664105892,
				0.9658282399177551
			],
			"scale":[
				-0.00042608220246620476,
				-0.0009083973709493876,
				-0.006269731558859348
			],
			"translation":[
				-0.000168513972312212,
				0.07797853648662567,
				-0.1952841579914093
			]
		},
		{
			"mesh":2,
			"name":"Rotor_L",
			"rotation":[
				0.0017690940294414759,
				0.0017694509588181973,
				-0.001775736571289599,
				0.9999953508377075
			],
			"translation":[
				0.12938055396080017,
				0.0005593926762230694,
				0
			]
		},
		{
			"children":[
				3
			],
			"mesh":3,
			"name":"Rotor_L_2",
			"translation":[
				0.1191730871796608,
				-0.006145122926682234,
				-0.00025205619749613106
			]
		},
		{
			"mesh":4,
			"name":"Rotor_R",
			"rotation":[
				0.0017694516573101282,
				0.0017694516573101282,
				-0.0017757359892129898,
				0.9999953508377075
			],
			"translation":[
				-0.12938055396080017,
				0.0005593897658400238,
				0
			]
		},
		{
			"children":[
				5
			],
			"mesh":5,
			"name":"Rotor_R_2",
			"translation":[
				-0.1191730871796608,
				-0.006674292962998152,
				0.00025190890301018953
			]
		},
		{
			"mesh":6,
			"name":"Sphere",
			"scale":[
				-0.0028347051702439785,
				-0.0028347051702439785,
				-0.0028347051702439785
			],
			"translation":[
				0.0006279161316342652,
				0.07835759222507477,
				-0.1956188976764679
			]
		},
		{
			"children":[
				1,
				2,
				4,
				6,
				7
			],
			"mesh":7,
			"name":"helicopter"
		},
		{
			"extensions":{
				"KHR_lights_punctual":{
					"light":1
				}
			},
			"name":"Sun",
			"rotation":[
				-0.13500814139842987,
				0.002086483873426914,
				-0.4209331274032593,
				0.8969859480857849
			],
			"translation":[
				0,
				569.2493896484375,
				0
			]
		}
	],
	"animations":[
		{
			"channels":[
				{
					"sampler":0,
					"target":{
						"node":8,
						"path":"translation"
					}
				},
				{
					"sampler":1,
					"target":{
						"node":8,
						"path":"rotation"
					}
				},
				{
					"sampler":2,
					"target":{
						"node":8,
						"path":"scale"
					}
				}
			],
			"name":"helicopterAction",
			"samplers":[
				{
					"input":38,
					"interpolation":"LINEAR",
					"output":39
				},
				{
					"input":38,
					"interpolation":"LINEAR",
					"output":40
				},
				{
					"input":41,
					"interpolation":"STEP",
					"output":42
				}
			]
		},
		{
			"channels":[
				{
					"sampler":0,
					"target":{
						"node":2,
						"path":"translation"
					}
				},
				{
					"sampler":1,
					"target":{
						"node":2,
						"path":"rotation"
					}
				},
				{
					"sampler":2,
					"target":{
						"node":2,
						"path":"scale"
					}
				}
			],
			"name":"Cube.002Action.004",
			"samplers":[
				{
					"input":43,
					"interpolation":"STEP",
					"output":44
				},
				{
					"input":43,
					"interpolation":"STEP",
					"output":45
				},
				{
					"input":43,
					"interpolation":"STEP",
					"output":46
				}
			]
		},
		{
			"channels":[
				{
					"sampler":0,
					"target":{
						"node":4,
						"path":"translation"
					}
				},
				{
					"sampler":1,
					"target":{
						"node":4,
						"path":"rotation"
					}
				},
				{
					"sampler":2,
					"target":{
						"node":4,
						"path":"scale"
					}
				}
			],
			"name":"Rotor_L_2Action.002",
			"samplers":[
				{
					"input":38,
					"interpolation":"LINEAR",
					"output":47
				},
				{
					"input":38,
					"interpolation":"LINEAR",
					"output":48
				},
				{
					"input":38,
					"interpolation":"LINEAR",
					"output":49
				}
			]
		},
		{
			"channels":[
				{
					"sampler":0,
					"target":{
						"node":3,
						"path":"rotation"
					}
				},
				{
					"sampler":1,
					"target":{
						"node":3,
						"path":"translation"
					}
				},
				{
					"sampler":2,
					"target":{
						"node":3,
						"path":"scale"
					}
				}
			],
			"name":"Rotor_LAction.002",
			"samplers":[
				{
					"input":38,
					"interpolation":"LINEAR",
					"output":50
				},
				{
					"input":38,
					"interpolation":"LINEAR",
					"output":51
				},
				{
					"input":41,
					"interpolation":"STEP",
					"output":52
				}
			]
		},
		{
			"channels":[
				{
					"sampler":0,
					"target":{
						"node":6,
						"path":"translation"
					}
				},
				{
					"sampler":1,
					"target":{
						"node":6,
						"path":"rotation"
					}
				},
				{
					"sampler":2,
					"target":{
						"node":6,
						"path":"scale"
					}
				}
			],
			"name":"Rotor_R_2Action.002",
			"samplers":[
				{
					"input":38,
					"interpolation":"LINEAR",
					"output":53
				},
				{
					"input":38,
					"interpolation":"LINEAR",
					"output":54
				},
				{
					"input":38,
					"interpolation":"LINEAR",
					"output":55
				}
			]
		},
		{
			"channels":[
				{
					"sampler":0,
					"target":{
						"node":5,
						"path":"rotation"
					}
				},
				{
					"sampler":1,
					"target":{
						"node":5,
						"path":"translation"
					}
				},
				{
					"sampler":2,
					"target":{
						"node":5,
						"path":"scale"
					}
				}
			],
			"name":"Rotor_RAction.002",
			"samplers":[
				{
					"input":38,
					"interpolation":"LINEAR",
					"output":56
				},
				{
					"input":38,
					"interpolation":"LINEAR",
					"output":57
				},
				{
					"input":38,
					"interpolation":"LINEAR",
					"output":58
				}
			]
		},
		{
			"channels":[
				{
					"sampler":0,
					"target":{
						"node":7,
						"path":"translation"
					}
				},
				{
					"sampler":1,
					"target":{
						"node":7,
						"path":"rotation"
					}
				},
				{
					"sampler":2,
					"target":{
						"node":7,
						"path":"scale"
					}
				}
			],
			"name":"SphereAction.001",
			"samplers":[
				{
					"input":43,
					"interpolation":"STEP",
					"output":59
				},
				{
					"input":43,
					"interpolation":"STEP",
					"output":60
				},
				{
					"input":43,
					"interpolation":"STEP",
					"output":61
				}
			]
		}
	],
	"materials":[
		{
			"doubleSided":true,
			"name":"Material.004",
			"normalTexture":{
				"index":0
			},
			"pbrMetallicRoughness":{
				"baseColorTexture":{
					"index":1
				},
				"metallicFactor":0,
				"roughnessFactor":0.5
			}
		},
		{
			"doubleSided":true,
			"extensions":{
				"KHR_materials_clearcoat":{
					"clearcoatFactor":0.3779069781303406,
					"clearcoatRoughnessFactor":0.1811627894639969
				},
				"KHR_materials_transmission":{
					"transmissionFactor":0.3895348906517029
				},
				"KHR_materials_specular":{
					"specularColorFactor":[
						0.4579944287658424,
						0.3981965459297808,
						0.4222439744278705
					]
				},
				"KHR_materials_ior":{
					"ior":23.25
				}
			},
			"extras":{
				"blenderkit":{}
			},
			"name":"Material.009",
			"pbrMetallicRoughness":{
				"baseColorFactor":[
					0.8000000715255737,
					0.6490232348442078,
					0.7097378373146057,
					1
				],
				"metallicFactor":0.08139535039663315,
				"roughnessFactor":0.7325581312179565
			}
		}
	],
	"meshes":[
		{
			"name":"Cube.001",
			"primitives":[
				{
					"attributes":{
						"POSITION":0,
						"TEXCOORD_0":1,
						"NORMAL":2
					},
					"indices":3,
					"material":0
				}
			]
		},
		{
			"name":"Cube.009",
			"primitives":[
				{
					"attributes":{
						"POSITION":4,
						"TEXCOORD_0":5,
						"NORMAL":6,
						"TANGENT":7
					},
					"indices":8,
					"material":1
				}
			]
		},
		{
			"extras":{
				"ms3d":{}
			},
			"name":"Cube.012",
			"primitives":[
				{
					"attributes":{
						"POSITION":9,
						"TEXCOORD_0":10,
						"NORMAL":11,
						"TANGENT":12
					},
					"indices":13,
					"material":0
				}
			]
		},
		{
			"extras":{
				"ms3d":{}
			},
			"name":"Mesh",
			"primitives":[
				{
					"attributes":{
						"POSITION":14,
						"TEXCOORD_0":15,
						"NORMAL":16,
						"TANGENT":17
					},
					"indices":18,
					"material":0
				}
			]
		},
		{
			"extras":{
				"ms3d":{}
			},
			"name":"Cube.004",
			"primitives":[
				{
					"attributes":{
						"POSITION":19,
						"TEXCOORD_0":20,
						"NORMAL":21,
						"TANGENT":22
					},
					"indices":13,
					"material":0
				}
			]
		},
		{
			"extras":{
				"ms3d":{}
			},
			"name":"Mesh",
			"primitives":[
				{
					"attributes":{
						"POSITION":23,
						"TEXCOORD_0":24,
						"NORMAL":25,
						"TANGENT":26
					},
					"indices":27,
					"material":0
				}
			]
		},
		{
			"name":"Sphere.001",
			"primitives":[
				{
					"attributes":{
						"POSITION":28,
						"TEXCOORD_0":29,
						"NORMAL":30,
						"TANGENT":31
					},
					"indices":32,
					"material":0
				}
			]
		},
		{
			"extras":{
				"ms3d":{}
			},
			"name":"Cube.011",
			"primitives":[
				{
					"attributes":{
						"POSITION":33,
						"TEXCOORD_0":34,
						"NORMAL":35,
						"TANGENT":36
					},
					"indices":37,
					"material":0
				}
			]
		}
	],
	"textures":[
		{
			"sampler":0,
			"source":0
		},
		{
			"sampler":0,
			"source":1
		}
	],
	"images":[
		{
			"mimeType":"image/jpeg",
			"name":"Flying drone_Nor_2.jpg",
			"uri":"texture/Flying%20drone_Nor_2_jpg.jpg"
		},
		{
			"mimeType":"image/jpeg",
			"name":"Flying drone_col.jpg",
			"uri":"texture/Flying%20drone_col_jpg.jpg"
		}
	],
	"accessors":[
		{
			"bufferView":0,
			"componentType":5126,
			"count":228,
			"max":[
				1,
				1,
				1.4020224809646606
			],
			"min":[
				-1,
				-1,
				-1
			],
			"type":"VEC3"
		},
		{
			"bufferView":1,
			"componentType":5126,
			"count":228,
			"type":"VEC2"
		},
		{
			"bufferView":2,
			"componentType":5126,
			"count":228,
			"type":"VEC3"
		},
		{
			"bufferView":3,
			"componentType":5123,
			"count":432,
			"type":"SCALAR"
		},
		{
			"bufferView":4,
			"componentType":5126,
			"count":144,
			"max":[
				3.786247968673706,
				1.8551185131072998,
				7.657720565795898
			],
			"min":[
				-25.55417823791504,
				-2.083557605743408,
				-0.1605454683303833
			],
			"type":"VEC3"
		},
		{
			"bufferView":5,
			"componentType":5126,
			"count":144,
			"type":"VEC2"
		},
		{
			"bufferView":6,
			"componentType":5126,
			"count":144,
			"type":"VEC3"
		},
		{
			"bufferView":7,
			"componentType":5126,
			"count":144,
			"type":"VEC4"
		},
		{
			"bufferView":8,
			"componentType":5123,
			"count":264,
			"type":"SCALAR"
		},
		{
			"bufferView":9,
			"componentType":5126,
			"count":4629,
			"max":[
				0.10873915255069733,
				0.008725387044250965,
				0.11203061044216156
			],
			"min":[
				-0.10873904079198837,
				-0.01405380479991436,
				-0.1120307594537735
			],
			"type":"VEC3"
		},
		{
			"bufferView":10,
			"componentType":5126,
			"count":4629,
			"type":"VEC2"
		},
		{
			"bufferView":11,
			"componentType":5126,
			"count":4629,
			"type":"VEC3"
		},
		{
			"bufferView":12,
			"componentType":5126,
			"count":4629,
			"type":"VEC4"
		},
		{
			"bufferView":13,
			"componentType":5123,
			"count":12960,
			"type":"SCALAR"
		},
		{
			"bufferView":14,
			"componentType":5126,
			"count":6234,
			"max":[
				0.2541629374027252,
				0.028264999389648438,
				0.12006790190935135
			],
			"min":[
				-1.1478491046545969e-08,
				-0.028265010565519333,
				-0.12006792426109314
			],
			"type":"VEC3"
		},
		{
			"bufferView":15,
			"componentType":5126,
			"count":6234,
			"type":"VEC2"
		},
		{
			"bufferView":16,
			"componentType":5126,
			"count":6234,
			"type":"VEC3"
		},
		{
			"bufferView":17,
			"componentType":5126,
			"count":6234,
			"type":"VEC4"
		},
		{
			"bufferView":18,
			"componentType":5123,
			"count":32976,
			"type":"SCALAR"
		},
		{
			"bufferView":19,
			"componentType":5126,
			"count":4629,
			"max":[
				0.10873915255069733,
				0.008725387044250965,
				0.11203061044216156
			],
			"min":[
				-0.10873904079198837,
				-0.01405380479991436,
				-0.1120307594537735
			],
			"type":"VEC3"
		},
		{
			"bufferView":20,
			"componentType":5126,
			"count":4629,
			"type":"VEC2"
		},
		{
			"bufferView":21,
			"componentType":5126,
			"count":4629,
			"type":"VEC3"
		},
		{
			"bufferView":22,
			"componentType":5126,
			"count":4629,
			"type":"VEC4"
		},
		{
			"bufferView":23,
			"componentType":5126,
			"count":6234,
			"max":[
				1.4901162970204496e-08,
				0.028264999389648438,
				0.12006791681051254
			],
			"min":[
				-0.2541629374027252,
				-0.028265010565519333,
				-0.12006791681051254
			],
			"type":"VEC3"
		},
		{
			"bufferView":24,
			"componentType":5126,
			"count":6234,
			"type":"VEC2"
		},
		{
			"bufferView":25,
			"componentType":5126,
			"count":6234,
			"type":"VEC3"
		},
		{
			"bufferView":26,
			"componentType":5126,
			"count":6234,
			"type":"VEC4"
		},
		{
			"bufferView":27,
			"componentType":5123,
			"count":32976,
			"type":"SCALAR"
		},
		{
			"bufferView":28,
			"componentType":5126,
			"count":2008,
			"max":[
				2.0539188385009766,
				27.78690528869629,
				1.0047645568847656
			],
			"min":[
				-2.0404343605041504,
				-1,
				-17.280006408691406
			],
			"type":"VEC3"
		},
		{
			"bufferView":29,
			"componentType":5126,
			"count":2008,
			"type":"VEC2"
		},
		{
			"bufferView":30,
			"componentType":5126,
			"count":2008,
			"type":"VEC3"
		},
		{
			"bufferView":31,
			"componentType":5126,
			"count":2008,
			"type":"VEC4"
		},
		{
			"bufferView":32,
			"componentType":5123,
			"count":2916,
			"type":"SCALAR"
		},
		{
			"bufferView":33,
			"componentType":5126,
			"count":66434,
			"max":[
				0.38598012924194336,
				0.05906996130943298,
				0.14794199168682098
			],
			"min":[
				-0.38598012924194336,
				-0.06270188838243484,
				-0.1576501429080963
			],
			"type":"VEC3"
		},
		{
			"bufferView":34,
			"componentType":5126,
			"count":66434,
			"type":"VEC2"
		},
		{
			"bufferView":35,
			"componentType":5126,
			"count":66434,
			"type":"VEC3"
		},
		{
			"bufferView":36,
			"componentType":5126,
			"count":66434,
			"type":"VEC4"
		},
		{
			"bufferView":37,
			"componentType":5125,
			"count":129024,
			"type":"SCALAR"
		},
		{
			"bufferView":38,
			"componentType":5126,
			"count":600,
			"max":[
				24.958333333333332
			],
			"min":[
				0
			],
			"type":"SCALAR"
		},
		{
			"bufferView":39,
			"componentType":5126,
			"count":600,
			"type":"VEC3"
		},
		{
			"bufferView":40,
			"componentType":5126,
			"count":600,
			"type":"VEC4"
		},
		{
			"bufferView":41,
			"componentType":5126,
			"count":1,
			"max":[
				24.958333333333332
			],
			"min":[
				24.958333333333332
			],
			"type":"SCALAR"
		},
		{
			"bufferView":42,
			"componentType":5126,
			"count":1,
			"type":"VEC3"
		},
		{
			"bufferView":43,
			"componentType":5126,
			"count":1,
			"max":[
				0
			],
			"min":[
				0
			],
			"type":"SCALAR"
		},
		{
			"bufferView":44,
			"componentType":5126,
			"count":1,
			"type":"VEC3"
		},
		{
			"bufferView":45,
			"componentType":5126,
			"count":1,
			"type":"VEC4"
		},
		{
			"bufferView":46,
			"componentType":5126,
			"count":1,
			"type":"VEC3"
		},
		{
			"bufferView":47,
			"componentType":5126,
			"count":600,
			"type":"VEC3"
		},
		{
			"bufferView":48,
			"componentType":5126,
			"count":600,
			"type":"VEC4"
		},
		{
			"bufferView":49,
			"componentType":5126,
			"count":600,
			"type":"VEC3"
		},
		{
			"bufferView":50,
			"componentType":5126,
			"count":600,
			"type":"VEC4"
		},
		{
			"bufferView":51,
			"componentType":5126,
			"count":600,
			"type":"VEC3"
		},
		{
			"bufferView":52,
			"componentType":5126,
			"count":1,
			"type":"VEC3"
		},
		{
			"bufferView":53,
			"componentType":5126,
			"count":600,
			"type":"VEC3"
		},
		{
			"bufferView":54,
			"componentType":5126,
			"count":600,
			"type":"VEC4"
		},
		{
			"bufferView":55,
			"componentType":5126,
			"count":600,
			"type":"VEC3"
		},
		{
			"bufferView":56,
			"componentType":5126,
			"count":600,
			"type":"VEC4"
		},
		{
			"bufferView":57,
			"componentType":5126,
			"count":600,
			"type":"VEC3"
		},
		{
			"bufferView":58,
			"componentType":5126,
			"count":600,
			"type":"VEC3"
		},
		{
			"bufferView":59,
			"componentType":5126,
			"count":1,
			"type":"VEC3"
		},
		{
			"bufferView":60,
			"componentType":5126,
			"count":1,
			"type":"VEC4"
		},
		{
			"bufferView":61,
			"componentType":5126,
			"count":1,
			"type":"VEC3"
		}
	],
	"bufferViews":[
		{
			"buffer":0,
			"byteLength":2736,
			"byteOffset":0,
			"target":34962
		},
		{
			"buffer":0,
			"byteLength":1824,
			"byteOffset":2736,
			"target":34962
		},
		{
			"buffer":0,
			"byteLength":2736,
			"byteOffset":4560,
			"target":34962
		},
		{
			"buffer":0,
			"byteLength":864,
			"byteOffset":7296,
			"target":34963
		},
		{
			"buffer":0,
			"byteLength":1728,
			"byteOffset":8160,
			"target":34962
		},
		{
			"buffer":0,
			"byteLength":1152,
			"byteOffset":9888,
			"target":34962
		},
		{
			"buffer":0,
			"byteLength":1728,
			"byteOffset":11040,
			"target":34962
		},
		{
			"buffer":0,
			"byteLength":2304,
			"byteOffset":12768,
			"target":34962
		},
		{
			"buffer":0,
			"byteLength":528,
			"byteOffset":15072,
			"target":34963
		},
		{
			"buffer":0,
			"byteLength":55548,
			"byteOffset":15600,
			"target":34962
		},
		{
			"buffer":0,
			"byteLength":37032,
			"byteOffset":71148,
			"target":34962
		},
		{
			"buffer":0,
			"byteLength":55548,
			"byteOffset":108180,
			"target":34962
		},
		{
			"buffer":0,
			"byteLength":74064,
			"byteOffset":163728,
			"target":34962
		},
		{
			"buffer":0,
			"byteLength":25920,
			"byteOffset":237792,
			"target":34963
		},
		{
			"buffer":0,
			"byteLength":74808,
			"byteOffset":263712,
			"target":34962
		},
		{
			"buffer":0,
			"byteLength":49872,
			"byteOffset":338520,
			"target":34962
		},
		{
			"buffer":0,
			"byteLength":74808,
			"byteOffset":388392,
			"target":34962
		},
		{
			"buffer":0,
			"byteLength":99744,
			"byteOffset":463200,
			"target":34962
		},
		{
			"buffer":0,
			"byteLength":65952,
			"byteOffset":562944,
			"target":34963
		},
		{
			"buffer":0,
			"byteLength":55548,
			"byteOffset":628896,
			"target":34962
		},
		{
			"buffer":0,
			"byteLength":37032,
			"byteOffset":684444,
			"target":34962
		},
		{
			"buffer":0,
			"byteLength":55548,
			"byteOffset":721476,
			"target":34962
		},
		{
			"buffer":0,
			"byteLength":74064,
			"byteOffset":777024,
			"target":34962
		},
		{
			"buffer":0,
			"byteLength":74808,
			"byteOffset":851088,
			"target":34962
		},
		{
			"buffer":0,
			"byteLength":49872,
			"byteOffset":925896,
			"target":34962
		},
		{
			"buffer":0,
			"byteLength":74808,
			"byteOffset":975768,
			"target":34962
		},
		{
			"buffer":0,
			"byteLength":99744,
			"byteOffset":1050576,
			"target":34962
		},
		{
			"buffer":0,
			"byteLength":65952,
			"byteOffset":1150320,
			"target":34963
		},
		{
			"buffer":0,
			"byteLength":24096,
			"byteOffset":1216272,
			"target":34962
		},
		{
			"buffer":0,
			"byteLength":16064,
			"byteOffset":1240368,
			"target":34962
		},
		{
			"buffer":0,
			"byteLength":24096,
			"byteOffset":1256432,
			"target":34962
		},
		{
			"buffer":0,
			"byteLength":32128,
			"byteOffset":1280528,
			"target":34962
		},
		{
			"buffer":0,
			"byteLength":5832,
			"byteOffset":1312656,
			"target":34963
		},
		{
			"buffer":0,
			"byteLength":797208,
			"byteOffset":1318488,
			"target":34962
		},
		{
			"buffer":0,
			"byteLength":531472,
			"byteOffset":2115696,
			"target":34962
		},
		{
			"buffer":0,
			"byteLength":797208,
			"byteOffset":2647168,
			"target":34962
		},
		{
			"buffer":0,
			"byteLength":1062944,
			"byteOffset":3444376,
			"target":34962
		},
		{
			"buffer":0,
			"byteLength":516096,
			"byteOffset":4507320,
			"target":34963
		},
		{
			"buffer":0,
			"byteLength":2400,
			"byteOffset":5023416
		},
		{
			"buffer":0,
			"byteLength":7200,
			"byteOffset":5025816
		},
		{
			"buffer":0,
			"byteLength":9600,
			"byteOffset":5033016
		},
		{
			"buffer":0,
			"byteLength":4,
			"byteOffset":5042616
		},
		{
			"buffer":0,
			"byteLength":12,
			"byteOffset":5042620
		},
		{
			"buffer":0,
			"byteLength":4,
			"byteOffset":5042632
		},
		{
			"buffer":0,
			"byteLength":12,
			"byteOffset":5042636
		},
		{
			"buffer":0,
			"byteLength":16,
			"byteOffset":5042648
		},
		{
			"buffer":0,
			"byteLength":12,
			"byteOffset":5042664
		},
		{
			"buffer":0,
			"byteLength":7200,
			"byteOffset":5042676
		},
		{
			"buffer":0,
			"byteLength":9600,
			"byteOffset":5049876
		},
		{
			"buffer":0,
			"byteLength":7200,
			"byteOffset":5059476
		},
		{
			"buffer":0,
			"byteLength":9600,
			"byteOffset":5066676
		},
		{
			"buffer":0,
			"byteLength":7200,
			"byteOffset":5076276
		},
		{
			"buffer":0,
			"byteLength":12,
			"byteOffset":5083476
		},
		{
			"buffer":0,
			"byteLength":7200,
			"byteOffset":5083488
		},
		{
			"buffer":0,
			"byteLength":9600,
			"byteOffset":5090688
		},
		{
			"buffer":0,
			"byteLength":7200,
			"byteOffset":5100288
		},
		{
			"buffer":0,
			"byteLength":9600,
			"byteOffset":5107488
		},
		{
			"buffer":0,
			"byteLength":7200,
			"byteOffset":5117088
		},
		{
			"buffer":0,
			"byteLength":7200,
			"byteOffset":5124288
		},
		{
			"buffer":0,
			"byteLength":12,
			"byteOffset":5131488
		},
		{
			"buffer":0,
			"byteLength":16,
			"byteOffset":5131500
		},
		{
			"buffer":0,
			"byteLength":12,
			"byteOffset":5131516
		}
	],
	"samplers":[
		{
			"magFilter":9729,
			"minFilter":9987
		}
	],
	"buffers":[
		{
			"byteLength":5131528,
			"uri":"untitled.bin"
		}
	]
}
